<?xml version="1.0" standalone="no"?>
<!DOCTYPE svg PUBLIC "-//W3C//DTD SVG 20010904//EN"
 "http://www.w3.org/TR/2001/REC-SVG-20010904/DTD/svg10.dtd">
<svg version="1.0" xmlns="http://www.w3.org/2000/svg"
 width="512.000000pt" height="512.000000pt" viewBox="0 0 512.000000 512.000000"
 preserveAspectRatio="xMidYMid meet">
<metadata>
Created by potrace 1.15, written by Peter Selinger 2001-2017
</metadata>
<g transform="translate(0.000000,512.000000) scale(0.100000,-0.100000)"
fill="#1976D2" stroke="none">
<path d="M2032 4773 c-29 -42 -106 -199 -135 -278 -113 -303 -61 -593 162
-892 65 -89 103 -113 143 -92 32 17 42 31 94 133 182 355 154 735 -76 1045
-83 112 -147 141 -188 84z"/>
<path d="M3365 4662 c-87 -53 -157 -186 -171 -326 -11 -108 25 -186 81 -172
58 15 152 131 191 237 21 57 21 196 0 237 -24 46 -53 53 -101 24z"/>
<path d="M2569 4623 c-72 -65 -119 -191 -119 -320 0 -90 39 -176 82 -181 37
-4 71 21 113 84 55 82 77 155 79 254 2 178 -63 246 -155 163z"/>
<path d="M1456 4618 c-20 -28 -21 -124 -2 -196 38 -141 167 -268 264 -260 33
3 38 7 50 43 41 125 -69 339 -209 411 -60 30 -83 30 -103 2z"/>
<path d="M2937 4530 c-56 -40 -153 -162 -195 -245 -80 -159 -92 -368 -31 -552
28 -85 52 -113 95 -113 49 0 83 20 143 85 100 110 176 272 201 426 9 58 10
103 1 188 -13 136 -26 184 -62 222 -40 42 -81 39 -152 -11z"/>
<path d="M3995 4316 c-109 -35 -213 -128 -265 -238 -56 -118 -35 -162 65 -133
198 57 408 295 327 368 -22 20 -71 21 -127 3z"/>
<path d="M1117 4272 c-22 -24 -22 -117 -1 -219 72 -350 324 -610 698 -717 145
-43 174 -35 183 48 7 58 -22 231 -52 309 -49 131 -100 212 -195 311 -109 114
-220 180 -419 247 -129 43 -189 49 -214 21z"/>
<path d="M3525 4251 c-52 -24 -182 -121 -267 -200 -187 -173 -252 -344 -252
-666 0 -195 30 -306 83 -305 54 1 214 110 320 219 99 102 158 186 190 271 84
216 96 572 23 670 -24 32 -47 35 -97 11z"/>
<path d="M4260 4000 c-323 -34 -669 -380 -648 -650 l3 -45 53 -3 c101 -6 331
80 457 172 65 47 135 139 190 251 68 140 84 240 43 269 -12 9 -25 15 -28 15
-3 -1 -34 -5 -70 -9z"/>
<path d="M2450 3871 c-85 -87 -150 -255 -150 -389 0 -127 81 -349 136 -374 48
-22 119 33 168 130 51 100 68 171 73 303 10 242 -41 389 -135 389 -28 0 -44
-10 -92 -59z"/>
<path d="M478 3861 c-55 -11 -71 -28 -64 -70 18 -110 256 -341 415 -402 50
-19 75 -22 236 -21 217 1 278 12 283 54 5 47 -47 127 -153 233 -110 111 -196
169 -271 185 -127 26 -363 37 -446 21z"/>
<path d="M2845 3462 c-123 -75 -214 -340 -161 -467 19 -45 51 -46 109 -6 126
87 195 272 156 416 -20 74 -50 90 -104 57z"/>
<path d="M2069 3339 c-33 -33 -22 -133 25 -234 52 -113 187 -245 250 -245 34
0 49 45 44 139 -5 116 -42 195 -127 273 -93 86 -152 107 -192 67z"/>
<path d="M475 3336 c-116 -19 -213 -53 -231 -82 -73 -111 276 -431 546 -500
152 -39 546 8 623 74 29 25 19 58 -42 139 -134 178 -314 302 -515 353 -103 26
-276 33 -381 16z"/>
<path d="M1355 3340 c-78 -13 -109 -36 -113 -84 -6 -74 84 -166 233 -237 99
-48 199 -64 340 -55 131 9 173 19 203 50 l25 25 -18 47 c-34 90 -148 171 -318
226 -103 34 -244 44 -352 28z"/>
<path d="M4050 3330 c-195 -38 -370 -149 -498 -316 -64 -84 -122 -188 -122
-219 0 -40 16 -48 147 -75 135 -27 271 -27 383 1 191 47 394 179 513 331 130
169 147 226 73 262 -33 16 -67 19 -245 22 -113 2 -226 -1 -251 -6z"/>
<path d="M3318 3111 c-107 -35 -184 -103 -234 -209 -38 -81 -42 -125 -13 -146
31 -22 63 -20 129 7 112 46 210 131 254 220 28 54 34 115 14 135 -17 17 -84
14 -150 -7z"/>
<path d="M2524 3073 c-14 -15 -41 -61 -62 -102 -34 -69 -37 -82 -37 -161 0
-80 3 -91 40 -165 48 -95 68 -105 115 -53 109 119 121 387 21 487 -28 28 -47
26 -77 -6z"/>
<path d="M2941 3037 c-63 -31 -142 -107 -174 -164 -42 -79 -69 -219 -51 -267
11 -30 60 -18 137 34 112 75 166 157 195 300 16 75 15 80 -2 99 -24 27 -50 26
-105 -2z"/>
<path d="M4647 3040 c-96 -17 -185 -78 -259 -177 -53 -73 -63 -108 -37 -134
42 -42 225 -2 331 73 42 29 108 135 108 173 0 34 -21 65 -43 65 -7 0 -21 2
-32 4 -11 2 -41 0 -68 -4z"/>
<path d="M1962 2928 c-51 -51 80 -245 201 -298 66 -29 207 -53 224 -38 37 30
-10 148 -91 231 -51 53 -109 82 -204 102 -88 18 -114 19 -130 3z"/>
<path d="M1550 2852 c-67 -33 -44 -99 61 -172 91 -64 148 -83 251 -84 78 -1
89 1 112 23 14 14 26 33 26 44 0 60 -109 154 -218 187 -81 25 -184 26 -232 2z"/>
<path d="M270 2798 c-92 -20 -105 -67 -36 -133 24 -23 70 -55 102 -71 55 -27
66 -29 184 -29 148 0 183 11 188 62 3 26 -4 39 -36 70 -45 44 -127 87 -193
102 -54 13 -149 12 -209 -1z"/>
<path d="M3055 2685 c-38 -21 -45 -32 -45 -76 0 -89 157 -228 309 -273 68 -20
214 -21 313 -2 130 25 158 44 158 106 0 32 -7 46 -37 76 -47 45 -211 125 -318
155 -108 30 -335 38 -380 14z"/>
<path d="M4015 2665 c-119 -26 -225 -86 -225 -128 0 -43 131 -133 260 -178 55
-19 85 -22 200 -22 152 0 229 19 282 70 44 42 39 86 -16 139 -113 108 -323
158 -501 119z"/>
<path d="M1145 2653 c-113 -25 -165 -55 -165 -93 0 -50 185 -194 308 -240 50
-20 70 -21 172 -17 171 8 321 55 328 104 6 39 -52 108 -141 166 -114 76 -158
87 -336 86 -80 -1 -155 -3 -166 -6z"/>
<path d="M2022 2575 c-79 -22 -152 -67 -173 -107 -15 -27 1 -43 85 -85 62 -31
83 -37 162 -41 76 -4 102 -1 160 18 81 27 134 63 134 92 0 11 -16 35 -35 54
-71 67 -226 99 -333 69z"/>
<path d="M2650 2521 c-19 -10 -36 -27 -38 -37 -7 -46 102 -143 192 -169 57
-17 213 -20 267 -5 127 35 62 149 -117 206 -98 31 -251 34 -304 5z"/>
<path d="M562 2456 c-98 -25 -197 -82 -277 -160 -112 -109 -104 -137 50 -176
114 -29 248 -27 339 5 115 40 235 130 283 212 l26 44 -23 24 c-12 13 -43 31
-69 40 -63 23 -258 29 -329 11z"/>
<path d="M2491 2436 c-61 -64 -81 -226 -40 -328 25 -65 92 -155 126 -171 22
-10 28 -8 49 16 30 35 44 87 44 167 -1 161 -73 340 -138 340 -10 0 -28 -11
-41 -24z"/>
<path d="M2233 2293 c-86 -57 -144 -130 -173 -218 -25 -75 -25 -172 1 -188 31
-19 84 2 146 58 112 101 177 230 171 336 -3 54 -3 54 -38 57 -28 2 -50 -7
-107 -45z"/>
<path d="M4512 2308 c-58 -15 -55 -69 9 -154 84 -113 178 -164 303 -164 58 0
76 4 89 18 93 103 -230 344 -401 300z"/>
<path d="M1885 2300 c-106 -16 -245 -144 -245 -226 0 -20 6 -34 16 -38 32 -12
95 -5 159 18 80 29 139 68 165 111 20 33 26 90 12 113 -12 19 -62 29 -107 22z"/>
<path d="M3080 2273 c-58 -21 -66 -74 -17 -119 88 -83 170 -114 300 -114 140
0 207 29 193 84 -20 79 -210 157 -380 155 -45 0 -88 -3 -96 -6z"/>
<path d="M3638 2266 c-63 -17 -78 -31 -78 -75 0 -142 355 -463 583 -528 71
-20 359 -29 456 -14 103 16 125 28 129 70 5 47 -83 174 -204 296 -169 170
-262 220 -469 251 -112 17 -354 17 -417 0z"/>
<path d="M2731 2256 c-33 -40 24 -197 100 -276 46 -47 168 -110 214 -110 42 0
55 16 55 70 0 131 -168 310 -306 326 -39 5 -53 3 -63 -10z"/>
<path d="M1275 2239 c-121 -13 -283 -53 -347 -85 -186 -93 -426 -391 -453
-561 -6 -38 -4 -43 21 -60 24 -15 48 -18 159 -17 145 1 249 19 393 66 153 50
282 161 414 356 103 152 133 255 85 286 -30 20 -159 27 -272 15z"/>
<path d="M2356 1994 c-124 -135 -143 -463 -37 -672 63 -124 124 -153 187 -87
63 67 100 212 91 358 -7 113 -26 188 -76 292 -62 130 -113 164 -165 109z"/>
<path d="M1761 1984 c-126 -34 -295 -149 -367 -249 -54 -76 -93 -170 -101
-241 -5 -46 -3 -53 16 -64 25 -13 103 -15 153 -5 74 16 240 119 316 196 98 98
172 230 172 304 0 69 -71 91 -189 59z"/>
<path d="M3243 1992 c-40 -12 -63 -40 -63 -75 0 -71 127 -220 265 -312 100
-66 174 -89 292 -89 88 -1 105 2 130 20 44 33 50 63 23 120 -28 59 -132 165
-215 219 -147 97 -331 146 -432 117z"/>
<path d="M2698 1973 c-29 -34 -43 -97 -43 -198 0 -86 4 -106 24 -145 39 -75
81 -127 117 -146 33 -18 34 -18 61 2 15 12 31 32 34 45 11 39 10 174 -2 231
-22 103 -108 228 -158 228 -10 0 -25 -8 -33 -17z"/>
<path d="M2073 1830 c-48 -28 -111 -97 -142 -158 -43 -82 -55 -226 -23 -255
50 -45 145 9 221 126 53 82 81 169 81 253 l0 64 -42 0 c-29 0 -60 -10 -95 -30z"/>
<path d="M2970 1774 c-13 -34 -13 -308 0 -412 35 -275 186 -470 491 -632 162
-86 181 -71 187 138 5 156 -8 251 -49 371 -46 132 -134 268 -232 357 -103 93
-299 204 -361 204 -19 0 -29 -7 -36 -26z"/>
<path d="M4091 1519 c-72 -9 -101 -29 -101 -70 0 -82 176 -179 323 -179 110 0
177 35 177 91 0 57 -126 140 -240 158 -72 12 -68 12 -159 0z"/>
<path d="M980 1494 c-30 -8 -72 -26 -92 -41 -80 -55 -168 -171 -168 -221 0
-38 34 -55 103 -50 108 7 255 98 325 202 35 53 43 110 16 120 -28 11 -127 5
-184 -10z"/>
<path d="M1575 1405 c-219 -36 -403 -157 -525 -347 -75 -115 -104 -270 -58
-302 75 -53 316 29 501 170 103 77 140 124 203 251 71 144 73 214 6 232 -20 6
-39 10 -42 10 -3 -1 -41 -7 -85 -14z"/>
<path d="M2048 1390 c-40 -12 -120 -73 -174 -133 -96 -107 -164 -226 -209
-367 -36 -113 -40 -284 -9 -345 28 -53 44 -61 92 -47 114 35 296 210 371 359
41 81 63 207 59 328 -4 124 -22 176 -69 200 -15 8 -29 15 -31 14 -2 0 -15 -4
-30 -9z"/>
<path d="M3697 1382 c-49 -54 12 -268 113 -394 70 -89 158 -145 270 -174 63
-16 93 -12 123 14 47 41 -1 220 -93 345 -114 154 -353 275 -413 209z"/>
<path d="M2695 1356 c-34 -34 -101 -173 -125 -258 -14 -52 -20 -103 -20 -181
0 -180 47 -321 154 -463 54 -72 93 -97 124 -78 23 15 96 161 129 259 25 73 27
93 27 230 1 132 -2 158 -23 215 -48 135 -167 300 -217 300 -14 0 -36 -11 -49
-24z"/>
<path d="M2282 1076 c-96 -110 -111 -384 -25 -470 14 -15 33 -25 42 -24 22 4
83 89 105 145 10 26 20 86 23 133 13 199 -62 310 -145 216z"/>
<path d="M3119 811 c-42 -33 -36 -157 13 -271 41 -96 151 -210 203 -210 41 0
57 32 57 110 -1 131 -53 245 -148 329 -61 53 -97 65 -125 42z"/>
</g>
</svg>
